<svg width="24" height="24" viewBox="0 0 24 24" fill="none" xmlns="http://www.w3.org/2000/svg">
<g clip-path="url(#clip0_309_1793)">
<path d="M12 24C18.6274 24 24 18.6274 24 12C24 5.37258 18.6274 0 12 0C5.37258 0 0 5.37258 0 12C0 18.6274 5.37258 24 12 24Z" fill="#D80027"/>
<path d="M6.56719 7.30298L7.60312 10.4905H10.9547L8.24531 12.4639L9.28125 15.6514L6.56719 13.6827L3.85313 15.6514L4.89375 12.4639L2.17969 10.4905H5.53125L6.56719 7.30298Z" fill="#FFDA44"/>
<path d="M14.227 18.5859L13.4348 17.6109L12.2629 18.0656L12.9426 17.0109L12.1504 16.0312L13.3645 16.3546L14.0489 15.2999L14.1145 16.5562L15.3333 16.8796L14.1567 17.3296L14.227 18.5859Z" fill="#FFDA44"/>
<path d="M15.802 15.7265L16.177 14.5265L15.1504 13.7999L16.4067 13.7812L16.777 12.5812L17.1848 13.7718L18.4411 13.7577L17.4333 14.5077L17.8364 15.6984L16.8098 14.9718L15.802 15.7265Z" fill="#FFDA44"/>
<path d="M17.9247 8.80772L17.3715 9.9374L18.2715 10.8139L17.0293 10.6358L16.4762 11.7608L16.2606 10.5233L15.0137 10.3452L16.1293 9.75928L15.9137 8.51709L16.8137 9.39365L17.9247 8.80772Z" fill="#FFDA44"/>
<path d="M14.2592 5.38586L14.1654 6.63743L15.3326 7.11087L14.1092 7.41086L14.0201 8.66711L13.3592 7.59836L12.1357 7.89836L12.9467 6.93743L12.281 5.87336L13.4482 6.3468L14.2592 5.38586Z" fill="#FFDA44"/>
</g>
<defs>
<clipPath id="clip0_309_1793">
<rect width="24" height="24" fill="white"/>
</clipPath>
</defs>
</svg>
