<svg width="24" height="24" viewBox="0 0 24 24" fill="none" xmlns="http://www.w3.org/2000/svg">
<g clip-path="url(#clip0_309_1802)">
<path d="M24 0H0V24H24V0Z" fill="#00AFCA"/>
<path d="M11.5319 13.3092C13.3154 13.3092 14.7611 11.8635 14.7611 10.08C14.7611 8.29659 13.3154 6.85083 11.5319 6.85083C9.74849 6.85083 8.30273 8.29659 8.30273 10.08C8.30273 11.8635 9.74849 13.3092 11.5319 13.3092Z" fill="#FEC50C"/>
<path d="M11.5316 6.4104C11.7236 6.408 11.7956 6.288 11.7956 6.144C11.7956 5.952 11.5316 5.0376 11.5316 5.0376C11.5316 5.0376 11.2676 5.952 11.2676 6.144C11.2676 6.288 11.3396 6.4104 11.5316 6.4104Z" fill="#FEC50C"/>
<path d="M15.2014 10.08C15.2038 10.272 15.3238 10.344 15.4678 10.344C15.6598 10.344 16.5742 10.08 16.5742 10.08C16.5742 10.08 15.6598 9.81604 15.4678 9.81604C15.3238 9.81604 15.2014 9.88804 15.2014 10.08Z" fill="#FEC50C"/>
<path d="M11.5319 13.7496C11.3399 13.752 11.2679 13.872 11.2679 14.016C11.2679 14.208 11.5319 15.1224 11.5319 15.1224C11.5319 15.1224 11.7959 14.208 11.7959 14.016C11.7959 13.872 11.7239 13.7496 11.5319 13.7496Z" fill="#FEC50C"/>
<path d="M7.86206 10.08C7.85966 9.88799 7.73966 9.81599 7.59566 9.81599C7.40366 9.81599 6.48926 10.08 6.48926 10.08C6.48926 10.08 7.40366 10.344 7.59566 10.344C7.73966 10.344 7.86206 10.272 7.86206 10.08Z" fill="#FEC50C"/>
<path d="M12.9363 6.68976C13.1146 6.76102 13.2271 6.67771 13.2822 6.54467C13.3557 6.36729 13.4617 5.42146 13.4617 5.42146C13.4617 5.42146 12.8678 6.16523 12.7944 6.34261C12.7393 6.47565 12.7589 6.61629 12.9363 6.68976Z" fill="#FEC50C"/>
<path d="M14.9217 11.4843C14.8504 11.6626 14.9337 11.775 15.0668 11.8302C15.2442 11.9036 16.19 12.0097 16.19 12.0097C16.19 12.0097 15.4462 11.4158 15.2688 11.3423C15.1358 11.2872 14.9952 11.3069 14.9217 11.4843Z" fill="#FEC50C"/>
<path d="M10.1271 13.4703C9.94884 13.399 9.8364 13.4823 9.7813 13.6154C9.70782 13.7927 9.6018 14.7386 9.6018 14.7386C9.6018 14.7386 10.1956 13.9948 10.2691 13.8174C10.3242 13.6844 10.3045 13.5437 10.1271 13.4703Z" fill="#FEC50C"/>
<path d="M8.14179 8.67573C8.21305 8.49743 8.12974 8.38499 7.9967 8.32988C7.81931 8.2564 6.87349 8.15038 6.87349 8.15038C6.87349 8.15038 7.61726 8.74421 7.79464 8.81769C7.92768 8.87279 8.06832 8.85312 8.14179 8.67573Z" fill="#FEC50C"/>
<path d="M14.1261 7.48515C14.2636 7.61922 14.3993 7.58528 14.5012 7.48345C14.6369 7.34769 15.0968 6.51443 15.0968 6.51443C15.0968 6.51443 14.2636 6.97434 14.1278 7.1101C14.026 7.21193 13.9904 7.34939 14.1261 7.48515Z" fill="#FEC50C"/>
<path d="M14.1258 12.6748C13.9917 12.8123 14.0257 12.948 14.1275 13.0499C14.2633 13.1856 15.0965 13.6455 15.0965 13.6455C15.0965 13.6455 14.6366 12.8123 14.5009 12.6765C14.399 12.5747 14.2616 12.5391 14.1258 12.6748Z" fill="#FEC50C"/>
<path d="M8.93638 12.6748C8.79892 12.5407 8.66316 12.5746 8.56133 12.6765C8.42557 12.8122 7.96567 13.6455 7.96567 13.6455C7.96567 13.6455 8.79892 13.1856 8.93469 13.0498C9.03651 12.948 9.07215 12.8105 8.93638 12.6748Z" fill="#FEC50C"/>
<path d="M8.93669 7.48521C9.07076 7.34775 9.03682 7.21199 8.93499 7.11016C8.79923 6.9744 7.96597 6.5145 7.96597 6.5145C7.96597 6.5145 8.42588 7.34775 8.56164 7.48351C8.66346 7.58534 8.80092 7.62098 8.93669 7.48521Z" fill="#FEC50C"/>
<path d="M14.9216 8.67575C14.9973 8.85221 15.1357 8.87281 15.2687 8.8177C15.4461 8.74423 16.1899 8.1504 16.1899 8.1504C16.1899 8.1504 15.2441 8.25642 15.0667 8.3299C14.9336 8.385 14.8481 8.49836 14.9216 8.67575Z" fill="#FEC50C"/>
<path d="M12.9358 13.4703C12.7594 13.546 12.7388 13.6844 12.7939 13.8174C12.8673 13.9948 13.4612 14.7386 13.4612 14.7386C13.4612 14.7386 13.3552 13.7928 13.2817 13.6154C13.2266 13.4824 13.1132 13.3968 12.9358 13.4703Z" fill="#FEC50C"/>
<path d="M8.14188 11.4843C8.06619 11.3078 7.92777 11.2872 7.79473 11.3423C7.61735 11.4158 6.87358 12.0096 6.87358 12.0096C6.87358 12.0096 7.8194 11.9036 7.99679 11.8301C8.12983 11.775 8.21536 11.6617 8.14188 11.4843Z" fill="#FEC50C"/>
<path d="M10.1277 6.68973C10.3041 6.61404 10.3247 6.47562 10.2696 6.34258C10.1961 6.1652 9.6023 5.42143 9.6023 5.42143C9.6023 5.42143 9.70832 6.36726 9.7818 6.54464C9.83691 6.67768 9.95027 6.76321 10.1277 6.68973Z" fill="#FEC50C"/>
<path d="M12.247 6.48093C12.4357 6.51604 12.5298 6.41239 12.5579 6.27116C12.5953 6.08285 12.5148 5.13451 12.5148 5.13451C12.5148 5.13451 12.0775 5.97984 12.04 6.16815C12.0119 6.30938 12.0587 6.44348 12.247 6.48093Z" fill="#FEC50C"/>
<path d="M15.1304 10.7959C15.0953 10.9847 15.1989 11.0787 15.3402 11.1068C15.5285 11.1443 16.4768 11.0637 16.4768 11.0637C16.4768 11.0637 15.6315 10.6264 15.4432 10.589C15.3019 10.5609 15.1679 10.6076 15.1304 10.7959Z" fill="#FEC50C"/>
<path d="M10.8155 13.6791C10.6268 13.644 10.5327 13.7476 10.5046 13.8889C10.4672 14.0772 10.5477 15.0255 10.5477 15.0255C10.5477 15.0255 10.985 14.1802 11.0225 13.9919C11.0506 13.8507 11.0038 13.7166 10.8155 13.6791Z" fill="#FEC50C"/>
<path d="M7.93211 9.36412C7.96721 9.17534 7.86356 9.08131 7.72233 9.05322C7.53402 9.01576 6.58568 9.0963 6.58568 9.0963C6.58568 9.0963 7.43101 9.53362 7.61932 9.57107C7.76055 9.59917 7.89465 9.55243 7.93211 9.36412Z" fill="#FEC50C"/>
<path d="M13.5701 7.02896C13.7311 7.13363 13.8576 7.07386 13.9376 6.95412C14.0443 6.79448 14.3328 5.88752 14.3328 5.88752C14.3328 5.88752 13.6053 6.50114 13.4986 6.66078C13.4186 6.78051 13.4105 6.92229 13.5701 7.02896Z" fill="#FEC50C"/>
<path d="M14.583 12.1188C14.4783 12.2798 14.5381 12.4063 14.6578 12.4863C14.8175 12.593 15.7244 12.8815 15.7244 12.8815C15.7244 12.8815 15.1108 12.154 14.9512 12.0473C14.8314 11.9673 14.6897 11.9592 14.583 12.1188Z" fill="#FEC50C"/>
<path d="M9.49337 13.1312C9.3324 13.0265 9.20586 13.0863 9.12586 13.206C9.01919 13.3657 8.73069 14.2726 8.73069 14.2726C8.73069 14.2726 9.45821 13.659 9.56488 13.4994C9.64488 13.3796 9.65302 13.2379 9.49337 13.1312Z" fill="#FEC50C"/>
<path d="M8.48049 8.04135C8.58517 7.88037 8.52539 7.75384 8.40566 7.67384C8.24602 7.56717 7.33905 7.27866 7.33905 7.27866C7.33905 7.27866 7.95268 8.00618 8.11232 8.11285C8.23205 8.19285 8.37383 8.20099 8.48049 8.04135Z" fill="#FEC50C"/>
<path d="M14.5824 8.0414C14.691 8.19971 14.8308 8.1929 14.9506 8.1129C15.1102 8.00623 15.7238 7.27871 15.7238 7.27871C15.7238 7.27871 14.8169 7.56722 14.6572 7.67389C14.5375 7.75389 14.4757 7.88176 14.5824 8.0414Z" fill="#FEC50C"/>
<path d="M13.5705 13.1312C13.4122 13.2399 13.419 13.3796 13.499 13.4994C13.6057 13.659 14.3332 14.2726 14.3332 14.2726C14.3332 14.2726 14.0447 13.3657 13.9381 13.206C13.858 13.0863 13.7302 13.0245 13.5705 13.1312Z" fill="#FEC50C"/>
<path d="M8.48012 12.1188C8.37146 11.9604 8.23168 11.9673 8.11195 12.0473C7.95231 12.1539 7.33868 12.8814 7.33868 12.8814C7.33868 12.8814 8.24565 12.5929 8.40529 12.4863C8.52502 12.4063 8.58679 12.2784 8.48012 12.1188Z" fill="#FEC50C"/>
<path d="M9.49294 7.02895C9.65125 6.92029 9.64444 6.78051 9.56444 6.66078C9.45777 6.50113 8.73025 5.88751 8.73025 5.88751C8.73025 5.88751 9.01876 6.79448 9.12543 6.95412C9.20543 7.07385 9.33329 7.13562 9.49294 7.02895Z" fill="#FEC50C"/>
<path d="M15.1309 9.36403C15.1707 9.55187 15.3024 9.59908 15.4436 9.57098C15.632 9.53353 16.4773 9.09621 16.4773 9.09621C16.4773 9.09621 15.529 9.01567 15.3406 9.05313C15.1994 9.08122 15.0934 9.17572 15.1309 9.36403Z" fill="#FEC50C"/>
<path d="M12.2477 13.6791C12.0598 13.7189 12.0126 13.8506 12.0407 13.9919C12.0782 14.1802 12.5155 15.0255 12.5155 15.0255C12.5155 15.0255 12.596 14.0772 12.5586 13.8889C12.5305 13.7476 12.436 13.6416 12.2477 13.6791Z" fill="#FEC50C"/>
<path d="M7.93261 10.7959C7.8928 10.608 7.76106 10.5608 7.61983 10.5889C7.43152 10.6264 6.58619 11.0637 6.58619 11.0637C6.58619 11.0637 7.53453 11.1442 7.72284 11.1068C7.86407 11.0787 7.97007 10.9842 7.93261 10.7959Z" fill="#FEC50C"/>
<path d="M10.8158 6.48095C11.0037 6.44114 11.0509 6.3094 11.0228 6.16817C10.9853 5.97986 10.548 5.13453 10.548 5.13453C10.548 5.13453 10.4675 6.08287 10.5049 6.27118C10.533 6.41241 10.6275 6.51841 10.8158 6.48095Z" fill="#FEC50C"/>
<path d="M10.9548 17.0752C10.8684 17.08 10.7844 17.0912 10.702 17.1176C10.5892 17.1328 10.4812 17.172 10.3692 17.1904L10.3244 17.1976L10.2492 17.2048C10.254 17.2256 10.2572 17.2464 10.2572 17.2672C10.2572 17.2888 10.2548 17.3096 10.2492 17.3272C10.2444 17.344 10.2292 17.3648 10.2172 17.3776C10.2012 17.3952 10.1844 17.4104 10.1644 17.42C10.1452 17.4296 10.1236 17.4336 10.102 17.4352C10.0804 17.436 10.058 17.4352 10.0372 17.4272C10.0156 17.42 9.99557 17.4064 9.97717 17.3904C9.95477 17.396 9.93157 17.4 9.90997 17.4024C9.88757 17.4048 9.86677 17.4048 9.84677 17.4024C9.82437 17.396 9.80117 17.3888 9.77957 17.38C9.75797 17.3712 9.73717 17.36 9.71717 17.3472C9.63557 17.3952 9.54437 17.4408 9.49477 17.5248C9.46677 17.5632 9.46117 17.6072 9.45477 17.6528C9.45077 17.7088 9.46516 17.768 9.48916 17.82C9.49796 17.8352 9.50517 17.7648 9.53237 17.7552C9.57797 17.7176 9.63477 17.6904 9.69237 17.6752C9.74117 17.6504 9.73477 17.6768 9.71477 17.7152C9.70997 17.7352 9.68277 17.8112 9.71957 17.7728C9.88197 17.7008 10.062 17.6864 10.2372 17.6728C10.4916 17.6464 10.7468 17.6408 11.002 17.6376C11.242 17.6408 11.482 17.644 11.722 17.6528C11.8364 17.656 11.9516 17.6816 12.0644 17.6624C12.0916 17.6552 12.134 17.6536 12.15 17.6376C12.0988 17.608 12.0388 17.6072 11.982 17.6H11.5244C11.3972 17.5872 11.2644 17.5856 11.1444 17.5376C11.1124 17.5248 11.0828 17.4944 11.0524 17.5272C11.0068 17.5432 10.958 17.5544 10.91 17.5576C10.826 17.564 10.742 17.5464 10.6644 17.5152C10.7204 17.4376 10.7876 17.3696 10.8492 17.2976C10.7996 17.2896 10.7516 17.2792 10.702 17.2672C10.7892 17.2072 10.87 17.1392 10.9548 17.0752V17.0752Z" fill="#FEC50C"/>
<path d="M14.6925 17.9042C14.5187 18.0086 14.3859 17.8235 14.2406 17.768C14.1368 17.8244 14.1271 18.013 14.0301 18.1023C13.9141 18.2344 13.7719 18.0655 13.7825 17.9352C13.6437 18.0522 13.5735 18.3173 13.3491 18.2819C13.2428 18.1951 13.1638 18.0131 13.0826 18.2204C13.0163 18.3217 12.8399 18.4659 12.7486 18.3128C12.7203 18.1778 12.6526 18.0188 12.579 18.2335C12.5286 18.3853 12.3666 18.4969 12.21 18.4305C12.1242 18.3604 12.2787 18.101 12.1695 18.1195C12.0063 18.2274 11.9115 18.4953 11.6837 18.4738C11.5953 18.3746 11.7374 18.2064 11.6404 18.0962C11.5259 18.2431 11.3989 18.4583 11.2008 18.4738C11.1051 18.3963 11.2046 18.1738 11.1435 18.1409C10.9403 18.2627 10.7258 18.4799 10.4703 18.4119C10.5699 18.031 10.986 17.8973 11.336 17.8676C11.9382 17.7936 12.5716 17.9297 13.151 17.7123C13.2446 17.6554 13.4714 17.5746 13.3906 17.4425C13.3191 17.3382 13.5767 17.379 13.6015 17.2571C13.5861 17.1028 13.7197 17.124 13.8502 17.1105C14.4352 17.0853 15.0131 17.2085 15.5964 17.2294C15.6405 17.5136 15.3252 17.7132 15.0714 17.6254C14.9501 17.6451 14.7683 17.3467 14.804 17.5638C14.7795 17.6777 14.7966 17.8282 14.6925 17.9043M9.71493 17.3223C9.85038 17.4463 9.94534 17.299 10.0719 17.2451C10.4965 17.0991 10.867 16.8439 11.2322 16.5889C11.4535 16.4058 11.6454 16.1683 11.9426 16.1089C12.5223 15.9336 13.1385 15.9549 13.7205 15.7931C14.1636 15.1864 14.9163 14.97 15.5468 14.6212C15.6884 14.5772 15.7431 14.4607 15.7883 14.3321C16.029 13.9521 16.3568 13.6155 16.7446 13.3855C16.928 13.2853 17.1469 13.2275 17.3546 13.2734C17.3397 13.5208 17.1978 13.74 17.0265 13.9111C17.1667 13.908 17.2872 13.8194 17.4289 13.8244C17.4775 14.0783 17.2033 14.2111 17.0574 14.3692C17.1387 14.3881 17.4499 14.4116 17.2803 14.493C17.0642 14.643 16.8174 14.746 16.6178 14.9202C16.8019 14.9533 16.8229 14.9924 16.6357 15.059C16.5344 15.1276 16.3395 15.1516 16.3207 15.2855C16.4597 15.3709 16.2566 15.4558 16.1783 15.4836C16.0285 15.5185 15.8711 15.5835 16.0701 15.6973C15.9949 15.8111 15.8334 15.8353 15.7016 15.8241C15.7416 15.953 15.7995 16.0971 15.6322 16.154C15.2572 16.4375 14.8172 16.6437 14.3458 16.6908C14.9346 16.7361 15.5411 16.6268 16.0443 16.3065C16.1107 16.228 16.4591 16.1436 16.2642 16.0775C16.1725 16.0394 15.9759 15.997 15.9626 15.927C16.2351 15.7589 16.5785 15.8187 16.8717 15.7188C16.8793 15.6239 16.6487 15.6503 16.5627 15.6287C16.3577 15.6119 16.3697 15.5596 16.5674 15.5402C16.8175 15.474 17.1008 15.4609 17.3112 15.2978C17.1399 15.2185 16.9244 15.2883 16.7417 15.2235C17.0515 15.0879 17.4171 15.0743 17.6951 14.8706C17.8217 14.7297 17.5329 14.7738 17.4487 14.7772C17.2771 14.8071 17.1977 14.7249 17.3927 14.6536C17.7256 14.4082 18.1471 14.2487 18.3809 13.8929C18.4363 13.8133 18.5113 13.5732 18.3347 13.6596C18.1023 13.7368 17.8979 13.998 17.6332 13.9172C18.1548 13.513 18.6511 13.0527 19.0076 12.4933C19.026 12.3319 18.7728 12.3145 18.7068 12.4412C18.3717 12.7641 18.0684 13.1452 17.6394 13.3477C18.0503 12.9511 18.39 12.4814 18.6864 11.9947C18.7499 11.85 18.9207 11.6759 18.8281 11.5151C18.6786 11.3915 18.4917 11.5047 18.4141 11.6527C18.1536 11.9927 17.9558 12.3897 17.6208 12.6667C17.9141 12.1069 18.2177 11.5111 18.2251 10.8655C18.2242 10.7326 18.1975 10.5369 18.017 10.5617C17.8739 10.5874 17.9079 10.8015 17.8489 10.9098C17.7191 11.3509 17.6581 11.8285 17.3917 12.2147C17.4517 11.8563 17.5565 11.4827 17.476 11.1208C17.4384 10.9591 17.1772 11.0286 17.2109 11.1887C16.8988 12.7693 15.8382 14.1517 14.4511 14.9514C13.816 15.3108 13.1066 15.5424 12.3848 15.6475C12.1907 15.69 11.9807 15.665 11.7951 15.7312C11.3454 16.076 11.0732 16.653 10.5038 16.8337C10.2487 16.9605 9.91593 16.9862 9.73348 17.2233C9.71769 17.2536 9.7143 17.2887 9.71491 17.3223" fill="#FEC50C"/>
<path d="M11.4189 15.7188C11.3349 15.8713 11.2855 16.0466 11.1775 16.1831C10.8525 15.8874 10.3814 15.8972 9.96917 15.8775C9.62893 15.8594 9.25892 15.828 8.99566 15.5853C8.71873 15.3584 8.49267 15.0639 8.18321 14.8799C7.90076 14.8031 7.61602 14.707 7.38893 14.5134C6.90365 14.1178 6.62573 13.5309 6.15154 13.123C6.06114 13.034 5.95453 12.965 5.85325 12.8895C5.75701 12.913 5.80055 13.1207 5.68279 13.0148C5.61873 12.9692 5.45844 12.9648 5.44401 13.0285C5.58898 13.2195 5.7341 13.4376 5.75419 13.682C5.65531 13.6921 5.47951 13.6611 5.4305 13.6979C5.56182 13.8947 5.73012 14.0693 5.92135 14.2082C5.82963 14.223 5.64888 14.2149 5.61372 14.2519C5.80354 14.4066 6.0071 14.5647 6.25564 14.6045C6.30652 14.6715 6.18127 14.801 6.2866 14.8583C6.3477 14.8832 6.54928 14.925 6.41042 14.9945C6.31513 15.0587 6.35049 15.2083 6.47233 15.205C6.54937 15.2443 6.72236 15.254 6.7359 15.3221C6.66761 15.3916 6.45515 15.474 6.63597 15.539C6.80491 15.6327 6.99758 15.6936 7.19049 15.7003C7.09369 15.7817 6.9744 15.8279 6.87475 15.9046C7.31995 16.1656 7.81346 16.3373 8.30114 16.5026C8.49532 16.5675 8.69172 16.628 8.893 16.6661C8.30815 16.6323 7.74288 16.4591 7.21022 16.2222C6.93415 16.1011 6.6562 15.9841 6.37327 15.8798C6.49733 15.8153 6.64082 15.7995 6.76948 15.7436C6.50241 15.6901 6.21064 15.6726 5.97588 15.5258C6.01187 15.4616 6.14827 15.4585 6.2237 15.4258C6.36557 15.3918 6.45357 15.3506 6.25355 15.3383C6.05181 15.2835 5.82047 15.3081 5.6427 15.1864C5.65415 15.1135 5.84018 15.1389 5.91597 15.1074C6.01137 15.091 6.11747 15.0773 6.19372 15.0131C5.88186 14.8838 5.47396 14.9754 5.22969 14.7C5.17334 14.5951 5.40461 14.6796 5.47048 14.6621C5.63781 14.6621 5.81769 14.7153 5.97705 14.6478C5.52263 14.4483 5.03589 14.2615 4.68933 13.8925C4.65083 13.8332 4.53556 13.6711 4.62857 13.6511C4.8983 13.6867 5.09354 13.9811 5.38207 13.9353C5.4204 13.8837 5.21447 13.799 5.16306 13.7251C4.74239 13.3641 4.33408 12.9724 4.03926 12.4995C4.01898 12.3416 4.26719 12.318 4.33254 12.4399C4.65426 12.7498 4.94488 13.1114 5.34556 13.3229C5.48775 13.3919 5.26393 13.2413 5.23412 13.1867C4.86387 12.7568 4.5114 12.3027 4.25264 11.7963C4.20632 11.7051 4.12955 11.5399 4.26815 11.4913C4.40668 11.4219 4.54418 11.5165 4.61442 11.6355C4.88663 11.9788 5.08694 12.3868 5.42603 12.6729C5.13714 12.1123 4.8287 11.5221 4.82123 10.877C4.82801 10.7519 4.83605 10.5628 5.00563 10.5679C5.14802 10.5463 5.12554 10.7286 5.17221 10.8156C5.31249 11.2895 5.37368 11.8025 5.65512 12.2209C5.59295 11.8693 5.50146 11.5073 5.56225 11.1499C5.57627 11.0325 5.70837 10.997 5.79461 11.0679C5.86432 11.2386 5.87887 11.4493 5.94239 11.6317C6.30383 12.8682 7.11539 13.9557 8.17298 14.6855C9.04398 15.2828 10.0777 15.6394 11.1327 15.7016C11.2279 15.71 11.3236 15.7128 11.419 15.7187" fill="#FEC50C"/>
<path d="M10.0793 17.3581C10.1106 17.3581 10.1361 17.3327 10.1361 17.3013C10.1361 17.2699 10.1106 17.2445 10.0793 17.2445C10.0479 17.2445 10.0225 17.2699 10.0225 17.3013C10.0225 17.3327 10.0479 17.3581 10.0793 17.3581Z" fill="#FEC50C"/>
<path d="M10.0749 17.3154C10.0877 17.3154 10.0981 17.305 10.0981 17.2922C10.0981 17.2794 10.0877 17.269 10.0749 17.269C10.0621 17.269 10.0518 17.2794 10.0518 17.2922C10.0518 17.305 10.0621 17.3154 10.0749 17.3154Z" fill="#FEC50C" stroke="#00AFCA" stroke-width="0.381274"/>
</g>
<defs>
<clipPath id="clip0_309_1802">
<rect width="24" height="24" rx="12" fill="white"/>
</clipPath>
</defs>
</svg>
