<svg width="126" height="18" viewBox="0 0 126 18" fill="none" xmlns="http://www.w3.org/2000/svg">
<path d="M5.83398 13.9682C5.37207 13.9682 5.01953 13.8406 4.77637 13.5854C4.5332 13.3301 4.41211 12.9716 4.41211 12.5096V3.28424H1.18457C0.808594 3.28424 0.516602 3.18097 0.30957 2.9743C0.103516 2.7677 0 2.48206 0 2.11737C0 1.8233 0.0634766 1.58478 0.189453 1.40179C0.224609 1.35034 0.264648 1.30322 0.30957 1.2605C0.516602 1.05389 0.808594 0.950562 1.18457 0.950562H10.4648C10.8418 0.950562 11.1338 1.05389 11.3408 1.2605C11.5469 1.45496 11.6504 1.7406 11.6504 2.11737C11.6504 2.48206 11.5469 2.7677 11.3408 2.9743C11.1338 3.18097 10.8418 3.28424 10.4648 3.28424H7.23828V12.5096C7.23828 12.9716 7.11621 13.3301 6.87402 13.5854C6.72852 13.746 6.53711 13.8561 6.2998 13.9156C6.16016 13.9507 6.00488 13.9682 5.83398 13.9682Z" fill="#0A0D14"/>
<path d="M22.7197 13.8788C22.5439 13.8181 22.3955 13.7263 22.2725 13.6036C22.041 13.3605 21.9258 13.0141 21.9258 12.5644V6.09198C21.9258 5.64227 22.041 5.30194 22.2725 5.07098C22.5156 4.82788 22.8496 4.70636 23.2754 4.70636C23.7129 4.70636 24.0469 4.82788 24.2773 5.07098C24.3896 5.18329 24.4746 5.32147 24.5322 5.48553C24.5938 5.65881 24.624 5.86096 24.624 6.09198V6.16168C24.8887 5.7428 25.2354 5.40961 25.6631 5.16217C25.9219 5.01044 26.1963 4.8938 26.4854 4.81226C26.8223 4.71735 27.1807 4.66992 27.5596 4.66992C28.2764 4.66992 28.8662 4.80969 29.3281 5.08923C29.79 5.35663 30.1367 5.7699 30.3672 6.32904C30.5986 6.87598 30.7139 7.57489 30.7139 8.42572V12.5644C30.7139 13.0141 30.5918 13.3605 30.3486 13.6036C30.1182 13.8467 29.7783 13.9682 29.3281 13.9682C28.8906 13.9682 28.5498 13.8467 28.3066 13.6036C28.0762 13.3605 27.9609 13.0141 27.9609 12.5644V8.55328C27.9609 7.93341 27.8457 7.48981 27.6143 7.22235C27.3955 6.94281 27.0557 6.80304 26.5928 6.80304C26.0098 6.80304 25.542 6.98535 25.1895 7.35004C24.8486 7.71466 24.6787 8.20087 24.6787 8.80859V12.5644C24.6787 13.5002 24.2236 13.9682 23.3115 13.9682C23.0889 13.9682 22.8916 13.9384 22.7197 13.8788Z" fill="#0A0D14"/>
<path d="M34.3193 13.9682C33.9053 13.9682 33.5898 13.8528 33.3711 13.6218C33.1523 13.3909 33.043 13.0688 33.043 12.6555V2.09918C33.043 1.85553 33.083 1.64362 33.1631 1.46332C33.2188 1.33783 33.2939 1.22766 33.3887 1.13287C33.6318 0.901917 33.96 0.786438 34.373 0.786438C34.7383 0.786438 35.0234 0.859375 35.2305 1.00525C35.4492 1.13898 35.6494 1.37598 35.832 1.71631L39.7334 8.84399L43.6357 1.71631C43.8174 1.37598 44.0127 1.13898 44.2188 1.00525C44.4375 0.859375 44.7227 0.786438 45.0752 0.786438C45.3369 0.786438 45.5586 0.83252 45.7422 0.924683C45.8486 0.978394 45.9424 1.04779 46.0234 1.13287C46.2549 1.36383 46.3701 1.68591 46.3701 2.09918V12.6555C46.3701 13.0688 46.2607 13.3909 46.042 13.6218C45.8848 13.7875 45.6777 13.8937 45.4209 13.9406C45.3203 13.959 45.2109 13.9682 45.0938 13.9682C44.6807 13.9682 44.3584 13.8528 44.127 13.6218C43.9082 13.3909 43.7988 13.0688 43.7988 12.6555V5.98975L40.8096 11.3428C40.6631 11.5737 40.5049 11.75 40.335 11.8715C40.1768 11.981 39.9648 12.0356 39.6973 12.0356C39.4297 12.0356 39.2109 11.9749 39.041 11.8533C38.9336 11.7767 38.833 11.6807 38.7402 11.5654C38.6865 11.4978 38.6348 11.4236 38.585 11.3428L35.5947 6.0307V12.6555C35.5947 13.0688 35.4854 13.3909 35.2666 13.6218C35.0605 13.8528 34.7441 13.9682 34.3193 13.9682Z" fill="#0A0D14"/>
<path d="M60.3105 13.9682C59.8486 13.9682 59.4961 13.8467 59.2529 13.6036C59.0098 13.3605 58.8887 13.0141 58.8887 12.5644V6.09198C58.8887 5.64227 59.0039 5.30194 59.2354 5.07098C59.4775 4.82788 59.8125 4.70636 60.2373 4.70636C60.4668 4.70636 60.668 4.73969 60.8398 4.80634C60.9971 4.86694 61.1309 4.95514 61.2402 5.07098C61.4717 5.30194 61.5869 5.64227 61.5869 6.09198V6.41931C61.7627 5.98169 62.0244 5.62341 62.3701 5.34448C62.8691 4.94336 63.5137 4.71851 64.3037 4.66992C64.6074 4.64557 64.8379 4.72461 64.9961 4.90692C65.166 5.07709 65.2578 5.36267 65.2695 5.76379C65.2939 6.14062 65.2148 6.43842 65.0322 6.65717C64.8623 6.87598 64.5713 7.0097 64.1572 7.05829L63.7383 7.09473C63.0449 7.15552 62.5283 7.35608 62.1885 7.69641C61.8604 8.03674 61.6963 8.52899 61.6963 9.17322V12.5644C61.6963 12.8613 61.6426 13.1132 61.5371 13.3201C61.4824 13.4265 61.4141 13.521 61.3311 13.6036C61.1006 13.8467 60.7607 13.9682 60.3105 13.9682Z" fill="#0A0D14"/>
<path d="M67.7881 13.9682C67.3379 13.9682 66.9922 13.8467 66.748 13.6036C66.5176 13.3605 66.4023 13.0141 66.4023 12.5644V2.19031C66.4023 1.72845 66.5176 1.38202 66.748 1.15112C66.9922 0.90802 67.3379 0.786438 67.7881 0.786438C68.0186 0.786438 68.2197 0.820129 68.3926 0.887573C68.5488 0.948242 68.6807 1.03607 68.79 1.15112C69.0332 1.38202 69.1553 1.72845 69.1553 2.19031V8.55328H69.1914L71.835 5.61798C71.9619 5.47382 72.083 5.34741 72.1992 5.23883C72.3271 5.11853 72.4492 5.02002 72.5645 4.94336C72.7959 4.78534 73.0996 4.70636 73.4766 4.70636C73.8535 4.70636 74.1387 4.80359 74.333 4.99805C74.54 5.1925 74.6426 5.42957 74.6426 5.70911C74.6553 5.9765 74.54 6.25 74.2969 6.52954L71.9648 9.13568L74.6064 12.1815C74.7207 12.3198 74.8018 12.4581 74.8506 12.5964C74.9004 12.7377 74.917 12.8789 74.8984 13.0201C74.8838 13.1863 74.835 13.3352 74.752 13.467C74.6953 13.557 74.6221 13.639 74.5332 13.713C74.3145 13.8832 74.0352 13.9682 73.6953 13.9682C73.4189 13.9682 73.1787 13.933 72.9736 13.8627C72.8711 13.8276 72.7773 13.7838 72.6924 13.7312C72.4492 13.5732 72.2002 13.3301 71.9443 13.002L69.1914 9.93896H69.1553V12.5644C69.1553 13.5002 68.6992 13.9682 67.7881 13.9682Z" fill="#0A0D14"/>
<path d="M90.7734 14.0047C89.9346 14.0047 89.2295 13.8649 88.6582 13.5854C88.0996 13.3058 87.6797 12.8986 87.4004 12.3638C87.1328 11.829 86.999 11.1544 86.999 10.34V6.91241H86.2334C85.8936 6.91241 85.626 6.82129 85.4307 6.63898C85.3232 6.53107 85.2471 6.39978 85.2041 6.24512C85.1738 6.13837 85.1582 6.02045 85.1582 5.89142C85.1582 5.55109 85.249 5.29584 85.4307 5.12567C85.626 4.94336 85.8936 4.85217 86.2334 4.85217H86.999V3.46655C86.999 3.0047 87.1211 2.65826 87.3643 2.42737C87.4717 2.31946 87.5986 2.23547 87.7451 2.17548C87.9277 2.10034 88.1416 2.06274 88.3848 2.06274C88.835 2.06274 89.1748 2.18427 89.4062 2.42737C89.6367 2.65826 89.752 3.0047 89.752 3.46655V4.85217H91.4844C91.8242 4.85217 92.0859 4.94336 92.2686 5.12567C92.3369 5.18982 92.3926 5.26599 92.4355 5.35431C92.5059 5.50031 92.542 5.67932 92.542 5.89142C92.542 6.20746 92.4502 6.4566 92.2686 6.63898C92.0859 6.82129 91.8242 6.91241 91.4844 6.91241H89.752V10.2307C89.752 10.7411 89.8682 11.124 90.0986 11.3793C90.3418 11.6345 90.7246 11.7621 91.2471 11.7621L91.3311 11.7609L91.4424 11.7548C91.5527 11.7463 91.6572 11.7305 91.7578 11.7075C91.916 11.671 92.0615 11.6467 92.1953 11.6345C92.3652 11.6224 92.5049 11.6771 92.6143 11.7986C92.7236 11.908 92.7783 12.1572 92.7783 12.5461C92.7783 12.6693 92.7695 12.7859 92.752 12.8961C92.7285 13.0468 92.6895 13.1854 92.6328 13.3119C92.6016 13.383 92.5625 13.4477 92.5146 13.506C92.417 13.627 92.2861 13.7203 92.1221 13.7859C91.9639 13.8467 91.7451 13.8953 91.4658 13.9318C91.3213 13.9581 91.1875 13.9772 91.0645 13.9893C90.959 13.9996 90.8623 14.0047 90.7734 14.0047Z" fill="#0A0D14"/>
<path d="M100.223 14.0047C98.8369 14.0047 97.6514 13.7312 96.667 13.1843C95.6826 12.6373 94.9229 11.8715 94.3887 10.887C93.8652 9.89032 93.6045 8.71741 93.6045 7.36823C93.6045 6.35938 93.75 5.45386 94.042 4.65167C94.3457 3.83728 94.7832 3.14447 95.3545 2.57324C95.9258 1.98981 96.6191 1.54004 97.4326 1.22406C98.2598 0.90802 99.1895 0.75 100.223 0.75C100.83 0.75 101.444 0.828979 102.064 0.987C102.696 1.13287 103.243 1.34558 103.705 1.62512C104.009 1.79529 104.215 2.008 104.324 2.26324C104.434 2.51849 104.464 2.77374 104.416 3.02899C104.38 3.28424 104.276 3.50305 104.105 3.68536C104.049 3.75153 103.985 3.8089 103.917 3.85748C103.797 3.94269 103.659 4.00079 103.504 4.0318C103.389 4.05487 103.267 4.05469 103.138 4.03125C102.995 4.00525 102.843 3.95074 102.684 3.86768C102.319 3.64893 101.937 3.49091 101.535 3.39362C101.134 3.29639 100.727 3.2478 100.313 3.2478C99.499 3.2478 98.8125 3.41187 98.2529 3.74005C97.707 4.05609 97.293 4.51794 97.0137 5.12567C96.7344 5.7334 96.5947 6.48096 96.5947 7.36823C96.5947 8.24335 96.7344 8.99091 97.0137 9.61078C97.1592 9.93414 97.3418 10.2178 97.5605 10.4619C97.7607 10.6855 97.9922 10.8759 98.2529 11.0329C98.8125 11.3489 99.499 11.5069 100.313 11.5069C100.702 11.5069 101.098 11.4583 101.499 11.361C101.671 11.3206 101.841 11.2705 102.006 11.211C102.103 11.1764 102.198 11.1385 102.292 11.0975C102.425 11.0397 102.556 10.9756 102.684 10.9053C102.817 10.8385 102.944 10.7902 103.064 10.7603C103.229 10.7195 103.382 10.7131 103.522 10.7411C103.777 10.7776 103.984 10.887 104.143 11.0693C104.243 11.1703 104.321 11.2842 104.375 11.4109C104.412 11.4977 104.438 11.5905 104.452 11.6893C104.501 11.9323 104.477 12.1754 104.38 12.4185C104.282 12.6616 104.1 12.8682 103.832 13.0384C103.383 13.3423 102.829 13.5793 102.174 13.7495C101.818 13.8416 101.465 13.9088 101.113 13.951C100.815 13.9868 100.519 14.0047 100.223 14.0047Z" fill="#0A0D14"/>
<path fill-rule="evenodd" clip-rule="evenodd" d="M12.9766 13.4395C13.6934 13.8163 14.5322 14.0047 15.4922 14.0047C16.21 14.0047 16.8594 13.9014 17.4434 13.6948C18.0391 13.476 18.543 13.1599 18.9561 12.7467C19.3701 12.3334 19.6855 11.8412 19.9043 11.2699C20.1357 10.6986 20.251 10.0483 20.251 9.31909C20.251 8.35883 20.0508 7.53229 19.6494 6.83954C19.4775 6.53314 19.2734 6.25769 19.0371 6.01318C18.7393 5.70465 18.3896 5.44525 17.9902 5.23511C17.2852 4.85828 16.4521 4.66992 15.4922 4.66992C15.1055 4.66992 14.7383 4.70178 14.3896 4.7655C14.0928 4.81982 13.8096 4.89734 13.541 4.99805C12.958 5.20471 12.4541 5.51465 12.0283 5.92792C11.6152 6.32904 11.2988 6.81519 11.0801 7.38647C10.8613 7.95776 10.752 8.60193 10.752 9.31909C10.752 10.2793 10.9463 11.1119 11.3359 11.8168C11.7246 12.5219 12.2715 13.0627 12.9766 13.4395ZM15.4922 11.9445C15.8936 11.9445 16.2402 11.8472 16.5312 11.6528C16.8232 11.4583 17.0537 11.1727 17.2246 10.7958C17.3945 10.4069 17.4795 9.91461 17.4795 9.31909C17.4795 8.43176 17.2979 7.78149 16.9326 7.36823C16.5684 6.94281 16.0879 6.7301 15.4922 6.7301C15.1035 6.7301 14.7568 6.82129 14.4531 7.0036C14.1611 7.18591 13.9307 7.47156 13.7598 7.86053C13.6816 8.04706 13.623 8.26038 13.584 8.50055C13.5439 8.74548 13.5234 9.01831 13.5234 9.31909C13.5234 10.2064 13.7061 10.8688 14.0703 11.3063C14.4346 11.7318 14.9092 11.9445 15.4922 11.9445Z" fill="#0A0D14"/>
<path fill-rule="evenodd" clip-rule="evenodd" d="M49.998 13.6218C50.5205 13.8771 51.1104 14.0047 51.7666 14.0047C52.2402 14.0047 52.6592 13.9257 53.0244 13.7677C53.1738 13.6978 53.3125 13.6177 53.4395 13.5273C53.6221 13.3976 53.7812 13.2468 53.918 13.0749C54.0645 12.8922 54.1797 12.6896 54.2637 12.4673V12.5644C54.2637 13.0141 54.373 13.3605 54.5918 13.6036C54.8232 13.8467 55.1455 13.9682 55.5586 13.9682C55.7754 13.9682 55.9648 13.9349 56.1279 13.8682C56.2764 13.8076 56.4023 13.7194 56.5068 13.6036C56.7256 13.3605 56.835 13.0141 56.835 12.5644V8.51685C56.835 7.62958 56.6826 6.90637 56.3789 6.34723C56.0752 5.77594 55.6191 5.35663 55.0117 5.08923C54.416 4.80969 53.6504 4.66992 52.7148 4.66992C52.5469 4.66992 52.3721 4.67651 52.1914 4.68976C51.9131 4.71008 51.6201 4.74597 51.3105 4.79749C50.8125 4.88263 50.2773 5.04059 49.7061 5.27155C49.4268 5.36877 49.2256 5.52075 49.1045 5.72736C48.9834 5.92181 48.9219 6.12848 48.9219 6.34723C48.9219 6.55383 48.9766 6.74835 49.0859 6.93066C49.1953 7.10083 49.3535 7.22235 49.5605 7.29529C49.6748 7.32898 49.7988 7.33466 49.9316 7.31238C50.0391 7.29443 50.1523 7.25836 50.2715 7.20416C50.501 7.11346 50.7197 7.03632 50.9287 6.97266C51.1396 6.90839 51.3398 6.85791 51.5293 6.82129C51.918 6.73621 52.2773 6.69366 52.6055 6.69366C53.1885 6.69366 53.6016 6.80914 53.8447 7.04004C53.9492 7.13367 54.0303 7.25616 54.0898 7.40759C54.1699 7.61011 54.21 7.86438 54.21 8.17041V8.48041H53.5527C52.2891 8.48041 51.2734 8.56549 50.5088 8.73566C49.7432 8.89362 49.1895 9.16711 48.8486 9.55609C48.5088 9.93286 48.3389 10.4495 48.3389 11.1058C48.3389 11.408 48.3828 11.6935 48.4717 11.9623C48.5439 12.1801 48.6455 12.3868 48.7764 12.5826C49.0684 13.0201 49.4756 13.3666 49.998 13.6218ZM53.5713 9.90247H54.21V10.2672C54.21 10.6318 54.1309 10.96 53.9727 11.2516C53.8945 11.3894 53.8018 11.5139 53.6943 11.6251C53.584 11.7396 53.458 11.84 53.3164 11.9263C53.0488 12.0842 52.7383 12.1633 52.3867 12.1633C51.9365 12.1633 51.5898 12.0539 51.3467 11.8351C51.1162 11.6163 51.001 11.3367 51.001 10.9964C51.001 10.7169 51.0801 10.498 51.2373 10.34C51.4082 10.1821 51.6807 10.0726 52.0576 10.0119C52.4473 9.93896 52.9512 9.90247 53.5713 9.90247Z" fill="#0A0D14"/>
<path fill-rule="evenodd" clip-rule="evenodd" d="M78.3398 13.4395C79.1055 13.8163 80.0176 14.0047 81.0752 14.0047L81.2578 14.0019C81.375 13.9982 81.4922 13.9911 81.6104 13.9805C81.7285 13.97 81.8467 13.9561 81.9658 13.9387C82.165 13.9095 82.3662 13.8708 82.5703 13.8224C82.8564 13.7625 83.126 13.6844 83.3799 13.588C83.5889 13.5084 83.7871 13.4164 83.9736 13.3119C84.2285 13.1782 84.4111 13.0141 84.5205 12.8196C84.6299 12.613 84.6729 12.4064 84.6484 12.1997C84.6445 12.144 84.6377 12.09 84.627 12.0377C84.6123 11.9682 84.5898 11.9019 84.5605 11.8386C84.5303 11.7733 84.4922 11.7114 84.4473 11.6528C84.3262 11.4948 84.1562 11.3975 83.9375 11.361C83.7188 11.3124 83.4697 11.355 83.1895 11.4887C82.8613 11.6467 82.5088 11.7621 82.1328 11.8351C81.9072 11.8787 81.6963 11.9092 81.502 11.9268C81.3711 11.9386 81.2471 11.9445 81.1289 11.9445C80.2783 11.9445 79.6348 11.7257 79.1973 11.2881C79.0908 11.1785 78.9971 11.0536 78.917 10.9135C78.7617 10.6405 78.6572 10.3096 78.6025 9.92072H83.9736C84.2529 9.92072 84.4658 9.86603 84.6123 9.75665C84.7578 9.63507 84.8311 9.45886 84.8311 9.22791C84.8311 8.5351 84.7334 7.90912 84.5391 7.35004C84.3447 6.77875 84.0586 6.29865 83.6816 5.90967C83.3057 5.50854 82.8555 5.20471 82.333 4.99805C81.8105 4.7793 81.2266 4.66992 80.583 4.66992C79.6953 4.66992 78.8994 4.87042 78.1943 5.27155C77.501 5.66052 76.96 6.20746 76.5713 6.91241C76.1826 7.60522 75.9883 8.41351 75.9883 9.33728C75.9883 10.2853 76.1885 11.1119 76.5898 11.8168C77.0029 12.5096 77.5859 13.0505 78.3398 13.4395ZM78.8135 7.69641C78.71 7.93427 78.6377 8.20166 78.5967 8.4986H82.5449C82.5234 8.11267 82.4531 7.78448 82.333 7.5141C82.1865 7.17377 81.9746 6.91852 81.6943 6.74835C81.4268 6.57819 81.0928 6.4931 80.6914 6.4931C80.2422 6.4931 79.8594 6.59644 79.543 6.80304C79.2275 7.0097 78.9844 7.30743 78.8135 7.69641Z" fill="#0A0D14"/>
<path fill-rule="evenodd" clip-rule="evenodd" d="M107.134 13.6218C107.656 13.8771 108.246 14.0047 108.902 14.0047C109.376 14.0047 109.795 13.9257 110.16 13.7677C110.367 13.6711 110.553 13.5549 110.717 13.4191C110.842 13.3157 110.954 13.201 111.054 13.0749C111.2 12.8922 111.314 12.6896 111.399 12.4673V12.5644C111.399 12.753 111.419 12.9234 111.457 13.0756C111.511 13.2864 111.601 13.4624 111.728 13.6036C111.959 13.8467 112.281 13.9682 112.694 13.9682C113.107 13.9682 113.424 13.8467 113.643 13.6036C113.861 13.3605 113.971 13.0141 113.971 12.5644V8.51685C113.971 7.62958 113.818 6.90637 113.515 6.34723C113.211 5.77594 112.755 5.35663 112.147 5.08923C111.552 4.80969 110.786 4.66992 109.851 4.66992C109.425 4.66992 108.956 4.71246 108.446 4.79749C108.173 4.84424 107.888 4.91296 107.592 5.00366C107.35 5.07812 107.1 5.16742 106.842 5.27155C106.562 5.36877 106.361 5.52075 106.24 5.72736C106.119 5.92181 106.058 6.12848 106.058 6.34723C106.058 6.55383 106.112 6.74835 106.222 6.93066C106.331 7.10083 106.489 7.22235 106.696 7.29529C106.902 7.35608 107.14 7.32568 107.407 7.20416C107.869 7.02179 108.288 6.89417 108.665 6.82129C109.054 6.73621 109.412 6.69366 109.741 6.69366C109.977 6.69366 110.184 6.71246 110.363 6.75C110.63 6.80554 110.835 6.90222 110.98 7.04004C111.092 7.14008 111.178 7.27319 111.238 7.43933C111.31 7.63647 111.346 7.88019 111.346 8.17041V8.48041H110.688C109.425 8.48041 108.409 8.56549 107.644 8.73566C106.878 8.89362 106.325 9.16711 105.984 9.55609C105.645 9.93286 105.475 10.4495 105.475 11.1058C105.475 11.6528 105.62 12.145 105.912 12.5826C106.203 13.0201 106.61 13.3666 107.134 13.6218ZM110.707 9.90247H111.346V10.2672C111.346 10.6318 111.267 10.96 111.108 11.2516C110.95 11.5312 110.731 11.7561 110.451 11.9263C110.317 12.0056 110.173 12.0649 110.017 12.1045C109.862 12.1437 109.697 12.1633 109.521 12.1633C109.307 12.1633 109.115 12.1382 108.947 12.088C108.764 12.0334 108.609 11.9492 108.482 11.8351C108.252 11.6163 108.137 11.3367 108.137 10.9964C108.137 10.7169 108.215 10.498 108.373 10.34C108.463 10.2571 108.58 10.1876 108.727 10.1314C108.859 10.0806 109.015 10.0408 109.193 10.0119C109.408 9.97168 109.658 9.9425 109.942 9.92444C110.174 9.90979 110.429 9.90247 110.707 9.90247Z" fill="#0A0D14"/>
<path fill-rule="evenodd" clip-rule="evenodd" d="M116.37 16.8854C116.613 17.1285 116.959 17.25 117.409 17.25C117.847 17.25 118.182 17.1285 118.412 16.8854C118.655 16.6544 118.776 16.308 118.776 15.8461V12.5956C118.987 12.9464 119.285 13.2459 119.67 13.4942C120.217 13.8345 120.843 14.0047 121.548 14.0047C122.338 14.0047 123.024 13.8163 123.608 13.4395C124.191 13.0627 124.647 12.5219 124.976 11.8168C125.304 11.1119 125.468 10.2793 125.468 9.31909C125.468 8.35883 125.304 7.53229 124.976 6.83954C124.647 6.14667 124.186 5.61188 123.59 5.23511C123.007 4.85828 122.325 4.66992 121.548 4.66992C120.831 4.66992 120.192 4.85217 119.634 5.21686C119.495 5.30591 119.368 5.40234 119.253 5.50616C119.043 5.69604 118.872 5.91064 118.74 6.1499V6.09198C118.74 5.64227 118.625 5.30194 118.394 5.07098C118.304 4.97656 118.197 4.90051 118.075 4.84277C117.882 4.75183 117.647 4.70636 117.373 4.70636C116.947 4.70636 116.613 4.82788 116.37 5.07098C116.315 5.12531 116.268 5.18567 116.226 5.25208C116.091 5.46808 116.023 5.74805 116.023 6.09198V15.8461C116.023 16.308 116.139 16.6544 116.37 16.8854ZM120.728 11.9445C121.116 11.9445 121.457 11.8472 121.748 11.6528C122.053 11.4583 122.283 11.1727 122.441 10.7958C122.611 10.4069 122.696 9.91461 122.696 9.31909C122.696 8.43176 122.514 7.78149 122.149 7.36823C121.785 6.94281 121.311 6.7301 120.728 6.7301C120.484 6.7301 120.258 6.76575 120.048 6.83704C119.923 6.87976 119.803 6.9353 119.688 7.0036C119.396 7.18591 119.165 7.47156 118.995 7.86053C118.825 8.2373 118.74 8.72345 118.74 9.31909C118.74 10.2064 118.923 10.8688 119.287 11.3063C119.651 11.7318 120.132 11.9445 120.728 11.9445Z" fill="#0A0D14"/>
</svg>
