<svg width="56" height="56" viewBox="0 0 56 56" fill="none" xmlns="http://www.w3.org/2000/svg">
<g clip-path="url(#clip0_309_1770)">
<path d="M28 56C43.464 56 56 43.464 56 28C56 12.536 43.464 0 28 0C12.536 0 0 12.536 0 28C0 43.464 12.536 56 28 56Z" fill="#0088CC"/>
<path fill-rule="evenodd" clip-rule="evenodd" d="M17.4253 15.1133L38.7384 15.1132C39.4924 15.1132 40.2459 15.2239 41.0333 15.591C41.9772 16.031 42.4777 16.7245 42.8284 17.2374C42.8557 17.2773 42.8812 17.3184 42.9048 17.3605C43.3171 18.0944 43.5296 18.8868 43.5296 19.7393C43.5296 20.5492 43.3369 21.4316 42.9048 22.2007C42.9007 22.2082 42.8965 22.2154 42.8923 22.2227L29.427 45.3531C29.1301 45.8633 28.5836 46.1761 27.9933 46.1741C27.4031 46.172 26.8588 45.8552 26.5655 45.343L13.3475 22.2619C13.3437 22.2557 13.3399 22.2494 13.3361 22.243C13.0336 21.7446 12.5657 20.9737 12.4839 19.9789C12.4087 19.0641 12.6143 18.1475 13.074 17.3527C13.5337 16.5578 14.2257 15.9224 15.058 15.5335C15.9505 15.1164 16.8549 15.1133 17.4253 15.1133ZM26.347 18.4175H17.4253C16.8391 18.4175 16.6141 18.4536 16.4568 18.5272C16.2393 18.6287 16.0566 18.7958 15.9344 19.0069C15.8123 19.2182 15.7571 19.4631 15.7772 19.7082C15.7887 19.8486 15.846 20.0093 16.1838 20.5664C16.1908 20.5781 16.1977 20.5899 16.2045 20.6017L26.347 38.3123V18.4175ZM29.6514 18.4175V38.3998L40.0288 20.5736C40.1459 20.3608 40.2253 20.0533 40.2253 19.7393C40.2253 19.4845 40.1725 19.2633 40.0544 19.0353C39.9305 18.8571 39.855 18.7628 39.7919 18.6982C39.7378 18.643 39.6961 18.6134 39.6372 18.586C39.3918 18.4715 39.1408 18.4175 38.7384 18.4175H29.6514Z" fill="white"/>
</g>
<defs>
<clipPath id="clip0_309_1770">
<rect width="56" height="56" fill="white"/>
</clipPath>
</defs>
</svg>
